<svg xmlns="http://www.w3.org/2000/svg" width="1000" height="1000" viewBox="0 0 1000 1000" fill="none">
<path d="M608.333 205C477.693 205 371.348 307.432 364.435 436.278C280.624 451.377 217 524.524 217 612.639C217 711.679 297.321 792 396.361 792H820.306C919.346 792 999.667 711.679 999.667 612.639C999.667 524.524 936.042 451.377 852.232 436.278C845.318 307.432 738.973 205 608.333 205Z" fill="#7d7d7d"/>
<path d="M231.562 728.43V792H178.75V728.43H231.562ZM134.687 719.713C148.179 725.31 163.022 728.43 178.75 728.43V792L176.44 791.985C153.047 791.689 130.737 786.892 110.331 778.428L134.687 719.713ZM0 613.25C1.03883e-06 591.845 3.76835 571.328 10.6758 552.317L40.5488 563.172L70.4229 574.027C66.008 586.178 63.5703 599.354 63.5703 613.25C63.5703 628.978 66.6902 643.821 72.2871 657.313L13.5713 681.668C4.82901 660.592 0 637.484 0 613.25ZM215.434 407.152C212.746 418.01 211.035 429.287 210.412 440.896L207.716 491.134L158.204 500.054C144.819 502.465 132.24 507.184 120.871 513.803L104.878 486.333L88.8857 458.865C106.537 448.588 126.11 441.242 146.933 437.49C147.772 421.85 150.081 406.6 153.726 391.878L215.434 407.152ZM258.827 245.34L275.989 272.094L293.15 298.848C273.934 311.174 257.193 327.08 243.88 345.623L192.241 308.548C210.222 283.504 232.831 262.014 258.826 245.339L258.827 245.34ZM391.524 207.005C406.694 207.098 421.53 208.577 435.913 211.321L424 273.765C413.044 271.674 401.685 270.57 390 270.57C378.315 270.57 366.956 271.674 356 273.765L344.086 211.321C358.951 208.485 374.299 207 390 207L391.524 207.005Z" fill="#7d7d7d"/>
</svg>
