<svg xmlns="http://www.w3.org/2000/svg" width="200" height="200" viewBox="0 0 200 200" fill="none">
<path d="M108.333 150V166.667H141.666V183.333H58.3331V166.667H91.6664V150H24.9331C23.8381 149.993 22.7552 149.771 21.7465 149.345C20.7378 148.919 19.8231 148.297 19.0551 147.517C18.287 146.737 17.6806 145.812 17.2707 144.797C16.8608 143.781 16.6554 142.695 16.6664 141.6V33.4C16.6664 28.7583 20.4581 25 24.9331 25H175.066C179.633 25 183.333 28.7417 183.333 33.3917V141.6C183.333 146.242 179.541 150 175.066 150H108.333Z" fill="#5e5e5e"/>
<rect x="29" y="37" width="142" height="101" rx="4" fill="#7d7d7d"/>
</svg>
