<svg width="100" height="100" viewBox="0 0 100 100" fill="none" xmlns="http://www.w3.org/2000/svg">
  <path d="M100 37.5H0V62.5H100V37.5ZM8.33333 54.1667L11.9292 45.8333H17.2417L13.6458 54.1667H8.33333ZM16.9417 54.1667L20.5375 45.8333H25.85L22.2542 54.1667H16.9417ZM25.5542 54.1667L29.15 45.8333H34.4625L30.8625 54.1667H25.5542ZM34.1625 54.1667L37.7583 45.8333H43.0667L39.4708 54.1667H34.1625ZM48.0833 54.1667H42.775L46.3708 45.8333H51.6833L48.0833 54.1667ZM87.5 54.1667C85.2 54.1667 83.3333 52.3 83.3333 50C83.3333 47.7 85.2 45.8333 87.5 45.8333C89.8042 45.8333 91.6667 47.7 91.6667 50C91.6667 52.3 89.8042 54.1667 87.5 54.1667ZM100 70.8333H0V95.8333H100V70.8333ZM8.33333 87.5L11.9292 79.1667H17.2417L13.6458 87.5H8.33333ZM16.9417 87.5L20.5375 79.1667H25.85L22.2542 87.5H16.9417ZM25.5542 87.5L29.15 79.1667H34.4625L30.8625 87.5H25.5542ZM34.1625 87.5L37.7583 79.1667H43.0667L39.4708 87.5H34.1625ZM48.0833 87.5H42.775L46.3708 79.1667H51.6833L48.0833 87.5ZM87.5 87.5C85.2 87.5 83.3333 85.6333 83.3333 83.3333C83.3333 81.0333 85.2 79.1667 87.5 79.1667C89.8042 79.1667 91.6667 81.0333 91.6667 83.3333C91.6667 85.6333 89.8042 87.5 87.5 87.5ZM91.6667 29.1667H8.33333L25 4.16666H75L91.6667 29.1667Z" fill="#7d7d7d"/>
</svg>
