<svg xmlns="http://www.w3.org/2000/svg" width="100" height="100" viewBox="0 0 100 100" fill="none">
  <g clip-path="url(#clip0_1_134)">
    <path d="M45.8333 4.16669C66.5458 4.16669 87.5 9.76252 87.5 16.6667V29.4709C91.9875 33.7834 95.8333 39.1834 95.8333 45.3834C95.8333 54.4084 87.7875 59.4584 78.5167 59.4584C70.5083 59.4584 60.6125 55.9208 50.5875 47.7667C51.5083 46.675 52.0833 45.2875 52.0833 43.75C52.0833 40.2959 49.2875 37.5 45.8333 37.5C42.3792 37.5 39.5833 40.2959 39.5833 43.75C39.5833 47.2042 42.3792 50 45.8333 50L46.6708 49.9167C57.0708 58.7709 68.2333 63.6209 78.5208 63.625C81.775 63.625 84.7792 63.075 87.5042 62.1042V80.2208C87.5 88.5292 70.8333 95.8334 45.7125 95.8334C20.9625 95.8334 4.16668 88.5625 4.16668 80.2208V16.6667C4.16668 9.76252 25.1208 4.16669 45.8333 4.16669ZM87.5 52.9C93.7417 48.85 92.5417 41.8542 87.5 35.6292V52.9ZM16.6667 82.0333C18.7208 83.375 22.55 84.5125 25 84.5083V31.3792C22.625 31.2667 18.8958 30.5125 16.6667 29.6875V82.0333ZM45.5083 24.0875C54.0625 24.0875 76.7125 22.4625 76.7125 18.2917C76.7125 14.0792 55.9375 11.8042 45.5083 11.8042C34.8083 11.8042 14.2125 14.125 14.2125 18.2917C14.2125 22.5042 36.7542 24.0875 45.5083 24.0875Z" fill="#7d7d7d"/>
  </g>
  <defs>
    <clipPath id="clip0_1_134">
      <rect width="100" height="100" fill="white"/>
    </clipPath>
  </defs>
</svg>
