<svg xmlns="http://www.w3.org/2000/svg" width="100" height="100" viewBox="0 0 100 100" fill="none">
  <path d="M29.167 8.33301C36.2294 16.4245 39.0457 20.8329 45.833 20.833H100V91.667H0V8.33301H29.167ZM22.7168 44.9893C21.0773 44.9893 19.6229 45.2661 18.3545 45.8193C17.0928 46.3726 16.1039 47.1449 15.3887 48.1367C14.6803 49.1218 14.3292 50.2723 14.3359 51.5879C14.3292 53.2072 14.8527 54.486 15.9053 55.4238C16.9646 56.3549 18.4119 57.0199 20.2471 57.418L22.3115 57.8633C23.0807 58.032 23.6915 58.2135 24.1436 58.4092C24.5956 58.5981 24.9196 58.8147 25.1152 59.0576C25.3174 59.2936 25.4219 59.5699 25.4287 59.8867C25.422 60.2241 25.3137 60.5249 25.1045 60.7881C24.8953 61.0511 24.5882 61.2569 24.1836 61.4053C23.7788 61.5536 23.2761 61.6279 22.6758 61.6279C21.9608 61.6279 21.3436 61.5165 20.8242 61.2939C20.3116 61.0714 19.9132 60.7441 19.6299 60.3125C19.3465 59.8807 19.188 59.3471 19.1543 58.7129H13.8105C13.8173 60.4469 14.1884 61.8711 14.9238 62.9844C15.666 64.0907 16.7053 64.9104 18.041 65.4434C19.3836 65.9763 20.9555 66.2432 22.7568 66.2432C24.5111 66.2432 26.0125 65.9964 27.2607 65.5039C28.5156 65.0114 29.4806 64.2931 30.1553 63.3486C30.83 62.404 31.171 61.2496 31.1777 59.8867C31.171 59.0975 31.0425 58.369 30.793 57.7012C30.5501 57.0333 30.1689 56.4324 29.6494 55.8994C29.13 55.3597 28.4617 54.8912 27.6455 54.4932C26.8291 54.0951 25.8472 53.7741 24.7002 53.5312L23 53.167C22.5075 53.0658 22.0822 52.9514 21.7246 52.8232C21.367 52.695 21.0732 52.5526 20.8438 52.3975C20.6145 52.2356 20.4458 52.0569 20.3379 51.8613C20.2368 51.659 20.1926 51.4331 20.2061 51.1836C20.2128 50.8801 20.3043 50.6101 20.4795 50.374C20.6549 50.138 20.9249 49.9523 21.2891 49.8174C21.6602 49.6757 22.1365 49.6045 22.7168 49.6045C23.6275 49.6045 24.3057 49.7931 24.751 50.1709C25.203 50.5487 25.4558 51.0753 25.5098 51.75H30.8936C30.8868 50.3938 30.5498 49.2093 29.8818 48.1973C29.2207 47.1786 28.2796 46.3891 27.0586 45.8291C25.8375 45.2691 24.3899 44.9893 22.7168 44.9893ZM33.6025 45.2725V66H39.2305V57.9033H47.2861V53.3691H39.2305V49.8066H48.1768V45.2725H33.6025ZM49.9648 45.2725V49.8066H56.1992V66H61.7451V49.8066H67.9795V45.2725H49.9648ZM70.3828 45.2725V66H76.0098V59.8467H79.127C80.7056 59.8466 82.085 59.5527 83.2656 58.9658C84.4531 58.3788 85.3748 57.5423 86.0293 56.4561C86.6904 55.3699 87.0204 54.0847 87.0205 52.6006C87.0205 51.1297 86.7005 49.8439 86.0596 48.7441C85.4186 47.6444 84.521 46.7908 83.3672 46.1836C82.2134 45.5764 80.8674 45.2725 79.3291 45.2725H70.3828ZM77.9932 49.7666C78.6544 49.7666 79.218 49.881 79.6836 50.1104C80.1558 50.333 80.517 50.657 80.7666 51.082C81.0229 51.5003 81.1504 52.0069 81.1504 52.6006C81.1503 53.1872 81.0227 53.6963 80.7666 54.1279C80.517 54.5596 80.1557 54.8937 79.6836 55.1299C79.218 55.3593 78.6544 55.4746 77.9932 55.4746H76.0098V49.7666H77.9932Z" fill="#7d7d7d"/>
</svg>
