<svg xmlns="http://www.w3.org/2000/svg" width="100" height="100" viewBox="0 0 100 100" fill="none">
  <path d="M50 12.5C66.6916 12.5 80.2787 25.5874 81.1621 42.0498C91.8703 43.979 99.9998 53.3248 100 64.583C100 77.2372 89.7372 87.5 77.083 87.5H22.917C10.2628 87.5 0 77.2372 0 64.583C0.000155747 53.3248 8.12966 43.979 18.8379 42.0498C19.7213 25.5874 33.3084 12.5 50 12.5ZM20.4492 54.2725V75H28.4238C30.5289 75 32.3543 74.5887 33.8994 73.7656C35.4445 72.9357 36.639 71.7482 37.4824 70.2031C38.3258 68.6514 38.747 66.7957 38.7471 64.6367C38.7471 62.4776 38.3218 60.6252 37.4717 59.0801C36.6283 57.5283 35.4276 56.3407 33.8691 55.5176C32.3173 54.6877 30.4749 54.2725 28.3428 54.2725H20.4492ZM46.4814 54.2725L39.6396 75H45.7119L46.9102 71.0322H53.7441L54.9424 75H61.0146L54.1729 54.2725H46.4814ZM59.6016 54.2725L66.4434 75H74.1348L80.9766 54.2725H74.6211L70.3701 68.8867H70.208L65.957 54.2725H59.6016ZM28.0596 59.0498C29.139 59.0498 30.0498 59.2153 30.792 59.5459C31.5408 59.8765 32.1076 60.4464 32.4922 61.2559C32.8835 62.0655 33.0791 63.1928 33.0791 64.6367C33.0791 66.0803 32.8874 67.207 32.5029 68.0166C32.1251 68.8263 31.5715 69.3969 30.8428 69.7275C30.1209 70.0581 29.2471 70.2226 28.2217 70.2227H26.0762V59.0498H28.0596ZM50.4082 59.9805L52.4736 66.8223H48.1807L50.2461 59.9805H50.4082Z" fill="#7d7d7d"/>
</svg>
